<?xml version="1.0" standalone="no"?><!DOCTYPE svg PUBLIC "-//W3C//DTD SVG 1.1//EN" "http://www.w3.org/Graphics/SVG/1.1/DTD/svg11.dtd"><svg t="1657725102718" class="icon" viewBox="0 0 1024 1024" version="1.1" xmlns="http://www.w3.org/2000/svg" p-id="1999" xmlns:xlink="http://www.w3.org/1999/xlink" width="200" height="200"><defs><style type="text/css">@font-face { font-family: feedback-iconfont; src: url("//at.alicdn.com/t/font_1031158_u69w8yhxdu.woff2?t=1630033759944") format("woff2"), url("//at.alicdn.com/t/font_1031158_u69w8yhxdu.woff?t=1630033759944") format("woff"), url("//at.alicdn.com/t/font_1031158_u69w8yhxdu.ttf?t=1630033759944") format("truetype"); }
</style></defs><path d="M870.2 162H153.8c-49.5 0-89.8 40.3-89.8 89.8v520.4c0 49.5 40.3 89.8 89.8 89.8h716.4c49.5 0 89.8-40.3 89.8-89.8V251.8c0-49.5-40.3-89.8-89.8-89.8zM643.9 575.7c-14.1-31.3-43.5-54.7-65.6-54.7h-6.8c-22.1 0-30.7 23.4-33.7 54.7h-67.4C456.5 544.4 427 521 405 521h-6.8c-22.1 0-30.7 23.4-33.7 54.7h-67.4C283 544.4 253.6 521 231.5 521h-6.8c-22.1 0-30.7 23.4-33.7 54.7h-63V402h250.3c1.4 36.3 8.6 54.7 34.8 54.7h6.8c26.2 0 62.8-18.4 71.7-54.7h60.1c1.4 36.3 8.6 54.7 34.8 54.7h6.8c26.2 0 62.8-18.4 71.7-54.7h60c1.4 36.3 8.6 54.7 34.8 54.7h6.8c26.2 0 62.8-18.4 71.7-54.7H896v173.7H643.9zM153.8 226h716.4c14.2 0 25.8 11.6 25.8 25.8V338h-63.8c-14.1-31.3-43.5-54.7-65.6-54.7h-6.8c-22.1 0-30.7 23.4-33.7 54.7h-67.4c-14.1-31.3-43.5-54.7-65.6-54.7h-6.8c-22.1 0-30.7 23.4-33.7 54.7h-67.4c-14.1-31.3-43.5-54.7-65.6-54.7h-6.8c-22.1 0-30.7 23.4-33.7 54.7H128v-86.1c0-14.3 11.6-25.9 25.8-25.9z m716.4 572H153.8c-14.2 0-25.8-11.6-25.8-25.8V639.7h62c1.4 36.3 8.6 54.7 34.8 54.7h6.8c42.5 0 66.9-18.4 72.5-54.7h59.6c2.8 36.3 15.3 54.7 41.5 54.7h6.8c26.2 0 57.4-18.4 65-54.7h60.1c2.8 36.3 15.3 54.7 41.5 54.7h6.8c26.2 0 57.4-18.4 65-54.7H896v132.4c0 14.3-11.6 25.9-25.8 25.9z" fill="#77767A" p-id="2000"></path></svg>