<?xml version="1.0" standalone="no"?><!DOCTYPE svg PUBLIC "-//W3C//DTD SVG 1.1//EN" "http://www.w3.org/Graphics/SVG/1.1/DTD/svg11.dtd"><svg t="1657725917707" class="icon" viewBox="0 0 1579 1024" version="1.1" xmlns="http://www.w3.org/2000/svg" p-id="37691" xmlns:xlink="http://www.w3.org/1999/xlink" width="308.3984375" height="200"><defs><style type="text/css">@font-face { font-family: feedback-iconfont; src: url("//at.alicdn.com/t/font_1031158_u69w8yhxdu.woff2?t=1630033759944") format("woff2"), url("//at.alicdn.com/t/font_1031158_u69w8yhxdu.woff?t=1630033759944") format("woff"), url("//at.alicdn.com/t/font_1031158_u69w8yhxdu.ttf?t=1630033759944") format("truetype"); }
</style></defs><path d="M1246.19883286 763.03636033a22.9566882 22.9566882 0 0 1-22.05257134-29.24619105 1062.16611274 1062.16611274 0 0 0 6.3550187-561.41680737L809.7597018 315.73473242 365.30145288 160.85570803a22.93048169 22.93048169 0 1 1 15.09480864-43.30585188l429.53378055 149.67708068L1261.62122001 113.31754434l6.55156631 23.19254434a1108.26293225 1108.26293225 0 0 1 0 609.89839728 22.94358453 22.94358453 0 0 1-21.97395346 16.62787436z" p-id="37692"></path><path d="M799.72270228 933.875l-1.65099463-0.18344394a909.97323074 909.97323074 0 0 1-264.29017896-71.12380243 921.84466883 921.84466883 0 0 1-179.65704748-104.65471747l-6.027441-4.49437445-2.20132646-7.18051684a1036.07777636 1036.07777636 0 0 1 0-606.67502673 22.93048169 22.93048169 0 1 1 43.84308088 13.43071114 990.22991665 990.22991665 0 0 0-2.17511994 572.60688272 875.60371472 875.60371472 0 0 0 164.65396124 94.97150299 864.13847388 864.13847388 0 0 0 249.33950491 67.35010007 695.0425512 695.0425512 0 0 0 234.82123463-49.39880877 707.16294827 707.16294827 0 0 0 190.11334625-113.43381674 22.93048169 22.93048169 0 1 1 29.33791342 35.24742554 752.94529294 752.94529294 0 0 1-202.43029092 120.77157101 740.82489588 740.82489588 0 0 1-252.03875016 52.7139017zM1264.00598957 699.69581876a22.93048169 22.93048169 0 0 1-18.67196338-36.21705744 843.37000928 843.37000928 0 0 0 50.30292481-79.92910739c65.0701549-117.49578744 101.87685352-249.94224892 109.68632089-394.40428308l-116.61787793 96.54387891a22.95537726 22.95537726 0 0 1-29.25929388-35.37845728L1453.08418971 90.125l-0.37999155 49.26777786c-1.31031326 171.74275571-40.6852262 328.66586828-116.97166213 466.47151089a889.70268494 889.70268494 0 0 1-53.05458225 84.24003709 22.90427517 22.90427517 0 0 1-18.67196421 9.59149292z" p-id="37693"></path><path d="M356.48304509 722.41665082a22.89117233 22.89117233 0 0 1-18.34438569-9.17219284 908.66291748 908.66291748 0 0 1-69.32867322-107.4456851 935.15745108 935.15745108 0 0 1-94.34255245-255.65521508A1056.61038482 1056.61038482 0 0 1 151.86453056 139.47139658L151.47143616 92.18219187l195.57735343 151.56393145a22.93179181 22.93179181 0 0 1-28.10621887 36.24326394L199.16683811 187.12748833c7.65222912 144.37031177 44.55065012 277.56365185 109.81735181 396.52699082a862.67092319 862.67092319 0 0 0 65.81703434 102.06029746 22.93048169 22.93048169 0 0 1-18.34438568 36.68877054z" p-id="37694"></path></svg>