<?xml version="1.0" standalone="no"?><!DOCTYPE svg PUBLIC "-//W3C//DTD SVG 1.1//EN" "http://www.w3.org/Graphics/SVG/1.1/DTD/svg11.dtd"><svg t="1657725368379" class="icon" viewBox="0 0 1024 1024" version="1.1" xmlns="http://www.w3.org/2000/svg" p-id="9701" xmlns:xlink="http://www.w3.org/1999/xlink" width="200" height="200"><defs><style type="text/css">@font-face { font-family: feedback-iconfont; src: url("//at.alicdn.com/t/font_1031158_u69w8yhxdu.woff2?t=1630033759944") format("woff2"), url("//at.alicdn.com/t/font_1031158_u69w8yhxdu.woff?t=1630033759944") format("woff"), url("//at.alicdn.com/t/font_1031158_u69w8yhxdu.ttf?t=1630033759944") format("truetype"); }
</style></defs><path d="M508.8 976H243.2c-36.8 0-67.2-30.4-67.2-67.2V371.2c0-36.8 30.4-67.2 67.2-67.2h265.6c36.8 0 67.2 30.4 67.2 67.2v537.6c0 36.8-30.4 67.2-67.2 67.2zM243.2 336C224 336 208 352 208 371.2v537.6c0 19.2 16 35.2 35.2 35.2h265.6c19.2 0 35.2-16 35.2-35.2V371.2c0-19.2-16-35.2-35.2-35.2H243.2z" fill="" p-id="9702"></path><path d="M560 464H208c-9.6 0-16-6.4-16-16s6.4-16 16-16h352c9.6 0 16 6.4 16 16s-6.4 16-16 16zM560 848H208c-9.6 0-16-6.4-16-16s6.4-16 16-16h352c9.6 0 16 6.4 16 16s-6.4 16-16 16zM400 912h-48c-9.6 0-16-6.4-16-16s6.4-16 16-16h48c9.6 0 16 6.4 16 16s-6.4 16-16 16zM352 368h128v32h-128zM288 368h32v32h-32z" fill="" p-id="9703"></path><path d="M624 752c-9.6 0-16-6.4-16-16s6.4-16 16-16h148.8c8 0 16-4.8 20.8-11.2 4.8-6.4 8-14.4 6.4-22.4V144c0-8-3.2-16-8-22.4-6.4-6.4-12.8-9.6-22.4-9.6H505.6c-20.8 0-38.4 16-41.6 36.8V256c0 9.6-6.4 16-16 16s-16-6.4-16-16V147.2v-1.6c4.8-36.8 35.2-65.6 73.6-65.6h265.6c17.6 0 33.6 8 44.8 19.2 11.2 12.8 16 28.8 16 46.4v539.2c1.6 14.4-3.2 32-14.4 44.8-11.2 12.8-25.6 20.8-41.6 22.4H624z" fill="" p-id="9704"></path><path d="M816 240H464c-9.6 0-16-6.4-16-16s6.4-16 16-16h352c9.6 0 16 6.4 16 16s-6.4 16-16 16zM816 624H608c-9.6 0-16-6.4-16-16s6.4-16 16-16h208c9.6 0 16 6.4 16 16s-6.4 16-16 16zM688 688h-48c-9.6 0-16-6.4-16-16s6.4-16 16-16h48c9.6 0 16 6.4 16 16s-6.4 16-16 16zM608 144h128v32h-128zM544 144h32v32h-32z" fill="" p-id="9705"></path></svg>